<mxfile host="app.diagrams.net" modified="2024-03-01T10:55:52.014Z" agent="Mozilla/5.0 (Macintosh; Intel Mac OS X 10_15_7) AppleWebKit/537.36 (KHTML, like Gecko) Chrome/121.0.0.0 Safari/537.36" version="24.0.0" etag="CXBMh6YudnXNAerUbx1O" type="github">
  <diagram name="PÃ¡gina-1" id="ZnGfsN26jsSwC7Kc2j8h">
    <mxGraphModel>
      <root>
        <mxCell id="0" />
        <mxCell id="1" parent="0" />
      </root>
    </mxGraphModel>
  </diagram>
</mxfile>
